<?xml version="1.0" encoding="utf-8"?><!DOCTYPE svg PUBLIC "-//W3C//DTD SVG 1.1//EN" "http://www.w3.org/Graphics/SVG/1.1/DTD/svg11.dtd">
<svg version="1.1" id="Layer_1" xmlns="http://www.w3.org/2000/svg" xmlns:xlink="http://www.w3.org/1999/xlink" x="0px" y="0px"
	 width="56.693px" height="56.693px" viewBox="0 0 56.693 56.693" enable-background="new 0 0 56.693 56.693" xml:space="preserve">
	<path d="M28.424,1C14.439,1,3.104,12.765,3.104,27.28c0,14.516,11.335,26.283,25.32,26.283
		c13.981,0,25.317-11.768,25.317-26.283C53.741,12.765,42.405,1,28.424,1z M41.274,31.441l-2.709,0.946l0.931,2.873
		c0.451,1.389-0.27,2.891-1.605,3.355c-1.336,0.469-2.783-0.277-3.231-1.664l-0.932-2.875l-5.571,1.947l0.942,2.906
		c0.449,1.389-0.268,2.889-1.604,3.357c-1.337,0.467-2.784-0.279-3.233-1.666l-0.944-2.906l-2.583,0.9
		c-1.336,0.469-2.784-0.277-3.233-1.664c-0.45-1.387,0.27-2.889,1.604-3.355l2.586-0.903l-1.836-5.663l-2.655,0.928
		c-1.336,0.467-2.784-0.28-3.234-1.667c-0.449-1.386,0.271-2.889,1.605-3.355l2.655-0.927L17.347,19.3
		c-0.45-1.386,0.27-2.889,1.604-3.356c1.336-0.466,2.784,0.28,3.234,1.667l0.877,2.708l5.571-1.947l-0.889-2.741
		c-0.45-1.387,0.268-2.89,1.604-3.356c1.337-0.467,2.784,0.279,3.232,1.666l0.889,2.741l2.638-0.921
		c1.337-0.466,2.783,0.278,3.234,1.667c0.449,1.387-0.268,2.888-1.604,3.356l-2.638,0.921l1.836,5.663l2.71-0.946
		c1.333-0.467,2.78,0.28,3.231,1.666C43.328,29.472,42.611,30.975,41.274,31.441z"/>
</svg>
