<?xml version="1.0" encoding="UTF-8" standalone="no"?>
<svg width="390px" viewBox="0 0 390 390" version="1.1" xmlns="http://www.w3.org/2000/svg" xmlns:xlink="http://www.w3.org/1999/xlink" xmlns:sketch="http://www.bohemiancoding.com/sketch/ns">
    <!-- Generator: Sketch 3.3.3 (12072) - http://www.bohemiancoding.com/sketch -->
    <title>rhyme_x_design_logo</title>
    <desc>Created with Sketch.</desc>
    <defs></defs>
    <g id="Page-1" stroke="none" stroke-width="1" fill="none" fill-rule="evenodd" sketch:type="MSPage">
        <g id="rhyme_x_design_logo" sketch:type="MSArtboardGroup">
            <g id="rxd_logo" sketch:type="MSLayerGroup" transform="translate(-91.000000, -91.000000)">
                <g id="Group" transform="translate(68.000000, 59.000000)" sketch:type="MSShapeGroup">
                    <path d="M241.243526,359.19488 C233.837529,360.382783 226.240844,361 218.5,361 C211.015455,361 203.66568,360.422979 196.492735,359.310995 L169.557281,371.169043 L154.924699,346.067071 C141.042346,339.135133 128.45006,330.003809 117.604364,319.129622 L89.5572809,313.04564 L92.3946434,284.921921 C85.0874381,271.077476 79.9932991,255.884075 77.5830645,239.812556 L59,219 L77.4090414,198.382379 C79.7336907,181.931139 84.8676493,166.382957 92.3099658,152.238761 L89.5572809,124.95436 L116.35165,119.142117 C127.686623,107.490814 140.997908,97.7720223 155.744258,90.5269886 L169.557281,66.8309574 L194.829761,77.956905 C202.528322,76.6698364 210.435937,76 218.5,76 C226.81623,76 234.966074,76.7123836 242.891837,78.0794557 L268.442719,66.8309574 L282.66503,91.2291157 C296.735324,98.336797 309.466669,107.709119 320.379962,118.866978 L348.442719,124.95436 L345.527025,153.854496 C352.320357,167.176662 357.079534,181.709326 359.395221,197.043152 L379,219 L359.207042,241.16757 C356.817167,256.119003 352.101531,270.294178 345.442778,283.310452 L348.442719,313.04564 L319.118588,319.40664 C308.707369,329.788324 296.69902,338.569179 283.494072,345.348675 L268.442719,371.169043 L241.243526,359.19488 Z" id="Oval-1" stroke="#00CCFF" stroke-width="2"></path>
                    <path d="M241.243526,359.19488 C233.837529,360.382783 226.240844,361 218.5,361 C211.015455,361 203.66568,360.422979 196.492735,359.310995 L169.557281,371.169043 L154.924699,346.067071 C141.042346,339.135133 128.45006,330.003809 117.604364,319.129622 L89.5572809,313.04564 L92.3946434,284.921921 C85.0874381,271.077476 79.9932991,255.884075 77.5830645,239.812556 L59,219 L77.4090414,198.382379 C79.7336907,181.931139 84.8676493,166.382957 92.3099658,152.238761 L89.5572809,124.95436 L116.35165,119.142117 C127.686623,107.490814 140.997908,97.7720223 155.744258,90.5269886 L169.557281,66.8309574 L194.829761,77.956905 C202.528322,76.6698364 210.435937,76 218.5,76 C226.81623,76 234.966074,76.7123836 242.891837,78.0794557 L268.442719,66.8309574 L282.66503,91.2291157 C296.735324,98.336797 309.466669,107.709119 320.379962,118.866978 L348.442719,124.95436 L345.527025,153.854496 C352.320357,167.176662 357.079534,181.709326 359.395221,197.043152 L379,219 L359.207042,241.16757 C356.817167,256.119003 352.101531,270.294178 345.442778,283.310452 L348.442719,313.04564 L319.118588,319.40664 C308.707369,329.788324 296.69902,338.569179 283.494072,345.348675 L268.442719,371.169043 L241.243526,359.19488 Z" id="Oval-1-Copy" stroke="#FFC500" stroke-width="2" transform="translate(219.000000, 218.805124) rotate(5.000000) translate(-219.000000, -218.805124) "></path>
                    <path d="M241.243526,359.19488 C233.837529,360.382783 226.240844,361 218.5,361 C211.015455,361 203.66568,360.422979 196.492735,359.310995 L169.557281,371.169043 L154.924699,346.067071 C141.042346,339.135133 128.45006,330.003809 117.604364,319.129622 L89.5572809,313.04564 L92.3946434,284.921921 C85.0874381,271.077476 79.9932991,255.884075 77.5830645,239.812556 L59,219 L77.4090414,198.382379 C79.7336907,181.931139 84.8676493,166.382957 92.3099658,152.238761 L89.5572809,124.95436 L116.35165,119.142117 C127.686623,107.490814 140.997908,97.7720223 155.744258,90.5269886 L169.557281,66.8309574 L194.829761,77.956905 C202.528322,76.6698364 210.435937,76 218.5,76 C226.81623,76 234.966074,76.7123836 242.891837,78.0794557 L268.442719,66.8309574 L282.66503,91.2291157 C296.735324,98.336797 309.466669,107.709119 320.379962,118.866978 L348.442719,124.95436 L345.527025,153.854496 C352.320357,167.176662 357.079534,181.709326 359.395221,197.043152 L379,219 L359.207042,241.16757 C356.817167,256.119003 352.101531,270.294178 345.442778,283.310452 L348.442719,313.04564 L319.118588,319.40664 C308.707369,329.788324 296.69902,338.569179 283.494072,345.348675 L268.442719,371.169043 L241.243526,359.19488 Z" id="Oval-1-Copy-2" stroke="#99E000" stroke-width="2" transform="translate(219.000000, 218.805124) rotate(10.000000) translate(-219.000000, -218.805124) "></path>
                    <path d="M241.243526,359.19488 C233.837529,360.382783 226.240844,361 218.5,361 C211.015455,361 203.66568,360.422979 196.492735,359.310995 L169.557281,371.169043 L154.924699,346.067071 C141.042346,339.135133 128.45006,330.003809 117.604364,319.129622 L89.5572809,313.04564 L92.3946434,284.921921 C85.0874381,271.077476 79.9932991,255.884075 77.5830645,239.812556 L59,219 L77.4090414,198.382379 C79.7336907,181.931139 84.8676493,166.382957 92.3099658,152.238761 L89.5572809,124.95436 L116.35165,119.142117 C127.686623,107.490814 140.997908,97.7720223 155.744258,90.5269886 L169.557281,66.8309574 L194.829761,77.956905 C202.528322,76.6698364 210.435937,76 218.5,76 C226.81623,76 234.966074,76.7123836 242.891837,78.0794557 L268.442719,66.8309574 L282.66503,91.2291157 C296.735324,98.336797 309.466669,107.709119 320.379962,118.866978 L348.442719,124.95436 L345.527025,153.854496 C352.320357,167.176662 357.079534,181.709326 359.395221,197.043152 L379,219 L359.207042,241.16757 C356.817167,256.119003 352.101531,270.294178 345.442778,283.310452 L348.442719,313.04564 L319.118588,319.40664 C308.707369,329.788324 296.69902,338.569179 283.494072,345.348675 L268.442719,371.169043 L241.243526,359.19488 Z" id="Oval-1-Copy-3" stroke="#FF1C5E" stroke-width="2" transform="translate(219.000000, 218.805124) rotate(15.000000) translate(-219.000000, -218.805124) "></path>
                    <path d="M241.176875,359.183127 C233.770878,360.371031 226.174192,360.988248 218.433348,360.988248 C210.948803,360.988248 203.599029,360.411226 196.426083,359.299243 L169.490629,371.15729 L154.858048,346.055318 C140.975694,339.123381 128.383408,329.992057 117.537713,319.11787 L89.4906294,313.033888 L92.3279919,284.910168 C85.0207865,271.065723 79.9266476,255.872322 77.516413,239.800803 L58.9333485,218.988248 L77.3423898,198.370626 C79.6670392,181.919386 84.8009977,166.371205 92.2433142,152.227008 L89.4906294,124.942607 L116.284999,119.130364 C127.619971,107.479062 140.931256,97.7602698 155.677607,90.5152361 L169.490629,66.8192049 L194.763109,77.9451525 C202.461671,76.658084 210.369285,75.9882475 218.433348,75.9882475 C226.749579,75.9882475 234.899423,76.7006312 242.825186,78.0677033 L268.376068,66.8192049 L282.598378,91.2173633 C296.668672,98.3250445 309.400017,107.697366 320.31331,118.855225 L348.376068,124.942607 L345.460373,153.842744 C352.253705,167.16491 357.012882,181.697573 359.328569,197.0314 L378.933348,218.988248 L359.14039,241.155818 C356.750515,256.10725 352.03488,270.282425 345.376126,283.2987 L348.376068,313.033888 L319.051937,319.394887 C308.640718,329.776572 296.632368,338.557427 283.42742,345.336922 L268.376068,371.15729 L241.176875,359.183127 Z" id="Oval-1-Copy-4" stroke="#002B43" stroke-width="2" transform="translate(218.933348, 218.988248) rotate(20.000000) translate(-218.933348, -218.988248) "></path>
                    <path d="M241.243526,359.19488 C233.837529,360.382783 226.240844,361 218.5,361 C211.015455,361 203.66568,360.422979 196.492735,359.310995 L169.557281,371.169043 L154.924699,346.067071 C141.042346,339.135133 128.45006,330.003809 117.604364,319.129622 L89.5572809,313.04564 L92.3946434,284.921921 C85.0874381,271.077476 79.9932991,255.884075 77.5830645,239.812556 L59,219 L77.4090414,198.382379 C79.7336907,181.931139 84.8676493,166.382957 92.3099658,152.238761 L89.5572809,124.95436 L116.35165,119.142117 C127.686623,107.490814 140.997908,97.7720223 155.744258,90.5269886 L169.557281,66.8309574 L194.829761,77.956905 C202.528322,76.6698364 210.435937,76 218.5,76 C226.81623,76 234.966074,76.7123836 242.891837,78.0794557 L268.442719,66.8309574 L282.66503,91.2291157 C296.735324,98.336797 309.466669,107.709119 320.379962,118.866978 L348.442719,124.95436 L345.527025,153.854496 C352.320357,167.176662 357.079534,181.709326 359.395221,197.043152 L379,219 L359.207042,241.16757 C356.817167,256.119003 352.101531,270.294178 345.442778,283.310452 L348.442719,313.04564 L319.118588,319.40664 C308.707369,329.788324 296.69902,338.569179 283.494072,345.348675 L268.442719,371.169043 L241.243526,359.19488 Z" id="Oval-1-Copy-5" stroke="#99E000" stroke-width="2" transform="translate(219.000000, 218.805124) rotate(25.000000) translate(-219.000000, -218.805124) "></path>
                    <path d="M241.243526,359.19488 C233.837529,360.382783 226.240844,361 218.5,361 C211.015455,361 203.66568,360.422979 196.492735,359.310995 L169.557281,371.169043 L154.924699,346.067071 C141.042346,339.135133 128.45006,330.003809 117.604364,319.129622 L89.5572809,313.04564 L92.3946434,284.921921 C85.0874381,271.077476 79.9932991,255.884075 77.5830645,239.812556 L59,219 L77.4090414,198.382379 C79.7336907,181.931139 84.8676493,166.382957 92.3099658,152.238761 L89.5572809,124.95436 L116.35165,119.142117 C127.686623,107.490814 140.997908,97.7720223 155.744258,90.5269886 L169.557281,66.8309574 L194.829761,77.956905 C202.528322,76.6698364 210.435937,76 218.5,76 C226.81623,76 234.966074,76.7123836 242.891837,78.0794557 L268.442719,66.8309574 L282.66503,91.2291157 C296.735324,98.336797 309.466669,107.709119 320.379962,118.866978 L348.442719,124.95436 L345.527025,153.854496 C352.320357,167.176662 357.079534,181.709326 359.395221,197.043152 L379,219 L359.207042,241.16757 C356.817167,256.119003 352.101531,270.294178 345.442778,283.310452 L348.442719,313.04564 L319.118588,319.40664 C308.707369,329.788324 296.69902,338.569179 283.494072,345.348675 L268.442719,371.169043 L241.243526,359.19488 Z" id="Oval-1-Copy-7" stroke="#FFC500" stroke-width="2" transform="translate(219.000000, 218.805124) rotate(30.000000) translate(-219.000000, -218.805124) "></path>
                    <circle id="Oval-9" fill="#FFFFFF" cx="218" cy="219" r="145"></circle>
                </g>
                <path d="M285.5,285.5 L285.5,84 L285.5,285.5 L84.5166667,285.5 L285.5,285.5 Z M285.5,285.5 L285.5,487 L285.5,285.5 L486.483333,285.5 L285.5,285.5 Z" id="Line-Copy" stroke="#9B9B9B" stroke-width="2" stroke-linecap="square" sketch:type="MSShapeGroup" transform="translate(285.500000, 285.500000) rotate(45.000000) translate(-285.500000, -285.500000) "></path>
                <rect id="Rectangle-1" fill="#FFFFFF" sketch:type="MSShapeGroup" x="82" y="193" width="410" height="179"></rect>
                <path d="M285.5,285.5 L285.5,272 L285.5,285.5 L272.034615,285.5 L285.5,285.5 Z M285.5,285.5 L285.5,299 L285.5,285.5 L298.965385,285.5 L285.5,285.5 Z" id="Line-Copy-2" stroke="#9B9B9B" stroke-width="2" stroke-linecap="square" sketch:type="MSShapeGroup" transform="translate(285.500000, 285.500000) rotate(45.000000) translate(-285.500000, -285.500000) "></path>
                <text id="DESIGN" sketch:type="MSTextLayer" font-family="DYNAMO magician" font-size="64" font-weight="normal" fill="#002B43">
                    <tspan x="113" y="364">DESIGN</tspan>
                </text>
                <text id="RHYME" sketch:type="MSTextLayer" font-family="DYNAMO magician" font-size="72" font-weight="normal" fill="#002B43">
                    <tspan x="112" y="272">RHYME</tspan>
                </text>
            </g>
        </g>
    </g>
</svg>