<?xml version="1.0" encoding="UTF-8" standalone="no"?>
<svg width="410px" height="324px" viewBox="0 0 410 324" version="1.1" xmlns="http://www.w3.org/2000/svg" xmlns:xlink="http://www.w3.org/1999/xlink" xmlns:sketch="http://www.bohemiancoding.com/sketch/ns">
    <!-- Generator: Sketch 3.3.3 (12072) - http://www.bohemiancoding.com/sketch -->
    <title>rhyme_x_design</title>
    <desc>Created with Sketch.</desc>
    <defs></defs>
    <g id="Page-1" stroke="none" stroke-width="1" fill="none" fill-rule="evenodd" sketch:type="MSPage">
        <g id="rxd_logo" sketch:type="MSLayerGroup" transform="translate(-82.000000, -116.000000)">
            <path d="M309.243526,418.19488 C301.837529,419.382783 294.240844,420 286.5,420 C279.015455,420 271.66568,419.422979 264.492735,418.310995 L237.557281,430.169043 L222.924699,405.067071 C209.042346,398.135133 196.45006,389.003809 185.604364,378.129622 L157.557281,372.04564 L160.394643,343.921921 C153.087438,330.077476 147.993299,314.884075 145.583065,298.812556 L127,278 L145.409041,257.382379 C147.733691,240.931139 152.867649,225.382957 160.309966,211.238761 L157.557281,183.95436 L184.35165,178.142117 C195.686623,166.490814 208.997908,156.772022 223.744258,149.526989 L237.557281,125.830957 L262.829761,136.956905 C270.528322,135.669836 278.435937,135 286.5,135 C294.81623,135 302.966074,135.712384 310.891837,137.079456 L336.442719,125.830957 L350.66503,150.229116 C364.735324,157.336797 377.466669,166.709119 388.379962,177.866978 L416.442719,183.95436 L413.527025,212.854496 C420.320357,226.176662 425.079534,240.709326 427.395221,256.043152 L447,278 L427.207042,300.16757 C424.817167,315.119003 420.101531,329.294178 413.442778,342.310452 L416.442719,372.04564 L387.118588,378.40664 C376.707369,388.788324 364.69902,397.569179 351.494072,404.348675 L336.442719,430.169043 L309.243526,418.19488 Z" id="Oval-1" stroke="#00CCFF" stroke-width="2" sketch:type="MSShapeGroup"></path>
            <path d="M309.243526,418.19488 C301.837529,419.382783 294.240844,420 286.5,420 C279.015455,420 271.66568,419.422979 264.492735,418.310995 L237.557281,430.169043 L222.924699,405.067071 C209.042346,398.135133 196.45006,389.003809 185.604364,378.129622 L157.557281,372.04564 L160.394643,343.921921 C153.087438,330.077476 147.993299,314.884075 145.583065,298.812556 L127,278 L145.409041,257.382379 C147.733691,240.931139 152.867649,225.382957 160.309966,211.238761 L157.557281,183.95436 L184.35165,178.142117 C195.686623,166.490814 208.997908,156.772022 223.744258,149.526989 L237.557281,125.830957 L262.829761,136.956905 C270.528322,135.669836 278.435937,135 286.5,135 C294.81623,135 302.966074,135.712384 310.891837,137.079456 L336.442719,125.830957 L350.66503,150.229116 C364.735324,157.336797 377.466669,166.709119 388.379962,177.866978 L416.442719,183.95436 L413.527025,212.854496 C420.320357,226.176662 425.079534,240.709326 427.395221,256.043152 L447,278 L427.207042,300.16757 C424.817167,315.119003 420.101531,329.294178 413.442778,342.310452 L416.442719,372.04564 L387.118588,378.40664 C376.707369,388.788324 364.69902,397.569179 351.494072,404.348675 L336.442719,430.169043 L309.243526,418.19488 Z" id="Oval-1-Copy" stroke="#FFC500" stroke-width="2" sketch:type="MSShapeGroup" transform="translate(287.000000, 277.805124) rotate(5.000000) translate(-287.000000, -277.805124) "></path>
            <path d="M309.243526,418.19488 C301.837529,419.382783 294.240844,420 286.5,420 C279.015455,420 271.66568,419.422979 264.492735,418.310995 L237.557281,430.169043 L222.924699,405.067071 C209.042346,398.135133 196.45006,389.003809 185.604364,378.129622 L157.557281,372.04564 L160.394643,343.921921 C153.087438,330.077476 147.993299,314.884075 145.583065,298.812556 L127,278 L145.409041,257.382379 C147.733691,240.931139 152.867649,225.382957 160.309966,211.238761 L157.557281,183.95436 L184.35165,178.142117 C195.686623,166.490814 208.997908,156.772022 223.744258,149.526989 L237.557281,125.830957 L262.829761,136.956905 C270.528322,135.669836 278.435937,135 286.5,135 C294.81623,135 302.966074,135.712384 310.891837,137.079456 L336.442719,125.830957 L350.66503,150.229116 C364.735324,157.336797 377.466669,166.709119 388.379962,177.866978 L416.442719,183.95436 L413.527025,212.854496 C420.320357,226.176662 425.079534,240.709326 427.395221,256.043152 L447,278 L427.207042,300.16757 C424.817167,315.119003 420.101531,329.294178 413.442778,342.310452 L416.442719,372.04564 L387.118588,378.40664 C376.707369,388.788324 364.69902,397.569179 351.494072,404.348675 L336.442719,430.169043 L309.243526,418.19488 Z" id="Oval-1-Copy-2" stroke="#99E000" stroke-width="2" sketch:type="MSShapeGroup" transform="translate(287.000000, 277.805124) rotate(10.000000) translate(-287.000000, -277.805124) "></path>
            <path d="M309.243526,418.19488 C301.837529,419.382783 294.240844,420 286.5,420 C279.015455,420 271.66568,419.422979 264.492735,418.310995 L237.557281,430.169043 L222.924699,405.067071 C209.042346,398.135133 196.45006,389.003809 185.604364,378.129622 L157.557281,372.04564 L160.394643,343.921921 C153.087438,330.077476 147.993299,314.884075 145.583065,298.812556 L127,278 L145.409041,257.382379 C147.733691,240.931139 152.867649,225.382957 160.309966,211.238761 L157.557281,183.95436 L184.35165,178.142117 C195.686623,166.490814 208.997908,156.772022 223.744258,149.526989 L237.557281,125.830957 L262.829761,136.956905 C270.528322,135.669836 278.435937,135 286.5,135 C294.81623,135 302.966074,135.712384 310.891837,137.079456 L336.442719,125.830957 L350.66503,150.229116 C364.735324,157.336797 377.466669,166.709119 388.379962,177.866978 L416.442719,183.95436 L413.527025,212.854496 C420.320357,226.176662 425.079534,240.709326 427.395221,256.043152 L447,278 L427.207042,300.16757 C424.817167,315.119003 420.101531,329.294178 413.442778,342.310452 L416.442719,372.04564 L387.118588,378.40664 C376.707369,388.788324 364.69902,397.569179 351.494072,404.348675 L336.442719,430.169043 L309.243526,418.19488 Z" id="Oval-1-Copy-3" stroke="#FF1C5E" stroke-width="2" sketch:type="MSShapeGroup" transform="translate(287.000000, 277.805124) rotate(15.000000) translate(-287.000000, -277.805124) "></path>
            <path d="M309.176875,418.183127 C301.770878,419.371031 294.174192,419.988248 286.433348,419.988248 C278.948803,419.988248 271.599029,419.411226 264.426083,418.299243 L237.490629,430.15729 L222.858048,405.055318 C208.975694,398.123381 196.383408,388.992057 185.537713,378.11787 L157.490629,372.033888 L160.327992,343.910168 C153.020787,330.065723 147.926648,314.872322 145.516413,298.800803 L126.933348,277.988248 L145.34239,257.370626 C147.667039,240.919386 152.800998,225.371205 160.243314,211.227008 L157.490629,183.942607 L184.284999,178.130364 C195.619971,166.479062 208.931256,156.76027 223.677607,149.515236 L237.490629,125.819205 L262.763109,136.945153 C270.461671,135.658084 278.369285,134.988248 286.433348,134.988248 C294.749579,134.988248 302.899423,135.700631 310.825186,137.067703 L336.376068,125.819205 L350.598378,150.217363 C364.668672,157.325045 377.400017,166.697366 388.31331,177.855225 L416.376068,183.942607 L413.460373,212.842744 C420.253705,226.16491 425.012882,240.697573 427.328569,256.0314 L446.933348,277.988248 L427.14039,300.155818 C424.750515,315.10725 420.03488,329.282425 413.376126,342.2987 L416.376068,372.033888 L387.051937,378.394887 C376.640718,388.776572 364.632368,397.557427 351.42742,404.336922 L336.376068,430.15729 L309.176875,418.183127 Z" id="Oval-1-Copy-4" stroke="#002B43" stroke-width="2" sketch:type="MSShapeGroup" transform="translate(286.933348, 277.988248) rotate(20.000000) translate(-286.933348, -277.988248) "></path>
            <path d="M309.243526,418.19488 C301.837529,419.382783 294.240844,420 286.5,420 C279.015455,420 271.66568,419.422979 264.492735,418.310995 L237.557281,430.169043 L222.924699,405.067071 C209.042346,398.135133 196.45006,389.003809 185.604364,378.129622 L157.557281,372.04564 L160.394643,343.921921 C153.087438,330.077476 147.993299,314.884075 145.583065,298.812556 L127,278 L145.409041,257.382379 C147.733691,240.931139 152.867649,225.382957 160.309966,211.238761 L157.557281,183.95436 L184.35165,178.142117 C195.686623,166.490814 208.997908,156.772022 223.744258,149.526989 L237.557281,125.830957 L262.829761,136.956905 C270.528322,135.669836 278.435937,135 286.5,135 C294.81623,135 302.966074,135.712384 310.891837,137.079456 L336.442719,125.830957 L350.66503,150.229116 C364.735324,157.336797 377.466669,166.709119 388.379962,177.866978 L416.442719,183.95436 L413.527025,212.854496 C420.320357,226.176662 425.079534,240.709326 427.395221,256.043152 L447,278 L427.207042,300.16757 C424.817167,315.119003 420.101531,329.294178 413.442778,342.310452 L416.442719,372.04564 L387.118588,378.40664 C376.707369,388.788324 364.69902,397.569179 351.494072,404.348675 L336.442719,430.169043 L309.243526,418.19488 Z" id="Oval-1-Copy-5" stroke="#99E000" stroke-width="2" sketch:type="MSShapeGroup" transform="translate(287.000000, 277.805124) rotate(25.000000) translate(-287.000000, -277.805124) "></path>
            <path d="M309.243526,418.19488 C301.837529,419.382783 294.240844,420 286.5,420 C279.015455,420 271.66568,419.422979 264.492735,418.310995 L237.557281,430.169043 L222.924699,405.067071 C209.042346,398.135133 196.45006,389.003809 185.604364,378.129622 L157.557281,372.04564 L160.394643,343.921921 C153.087438,330.077476 147.993299,314.884075 145.583065,298.812556 L127,278 L145.409041,257.382379 C147.733691,240.931139 152.867649,225.382957 160.309966,211.238761 L157.557281,183.95436 L184.35165,178.142117 C195.686623,166.490814 208.997908,156.772022 223.744258,149.526989 L237.557281,125.830957 L262.829761,136.956905 C270.528322,135.669836 278.435937,135 286.5,135 C294.81623,135 302.966074,135.712384 310.891837,137.079456 L336.442719,125.830957 L350.66503,150.229116 C364.735324,157.336797 377.466669,166.709119 388.379962,177.866978 L416.442719,183.95436 L413.527025,212.854496 C420.320357,226.176662 425.079534,240.709326 427.395221,256.043152 L447,278 L427.207042,300.16757 C424.817167,315.119003 420.101531,329.294178 413.442778,342.310452 L416.442719,372.04564 L387.118588,378.40664 C376.707369,388.788324 364.69902,397.569179 351.494072,404.348675 L336.442719,430.169043 L309.243526,418.19488 Z" id="Oval-1-Copy-7" stroke="#FFC500" stroke-width="2" sketch:type="MSShapeGroup" transform="translate(287.000000, 277.805124) rotate(30.000000) translate(-287.000000, -277.805124) "></path>
            <circle id="Oval-9" fill="#FFFFFF" sketch:type="MSShapeGroup" cx="286" cy="278" r="145"></circle>
            <path d="M285.5,285.5 L285.5,84 L285.5,285.5 L84.5166667,285.5 L285.5,285.5 Z M285.5,285.5 L285.5,487 L285.5,285.5 L486.483333,285.5 L285.5,285.5 Z" id="Line-Copy" stroke="#9B9B9B" stroke-width="2" stroke-linecap="square" sketch:type="MSShapeGroup" transform="translate(285.500000, 285.500000) rotate(45.000000) translate(-285.500000, -285.500000) "></path>
            <rect id="Rectangle-1" fill="#FFFFFF" sketch:type="MSShapeGroup" x="82" y="193" width="410" height="179"></rect>
            <path d="M285.5,285.5 L285.5,272 L285.5,285.5 L272.034615,285.5 L285.5,285.5 Z M285.5,285.5 L285.5,299 L285.5,285.5 L298.965385,285.5 L285.5,285.5 Z" id="Line-Copy-2" stroke="#9B9B9B" stroke-width="2" stroke-linecap="square" sketch:type="MSShapeGroup" transform="translate(285.500000, 285.500000) rotate(45.000000) translate(-285.500000, -285.500000) "></path>
            <text id="DESIGN" sketch:type="MSTextLayer" font-family="DYNAMO magician" font-size="64" font-weight="normal" fill="#002B43">
                <tspan x="113" y="364">DESIGN</tspan>
            </text>
            <text id="RHYME" sketch:type="MSTextLayer" font-family="DYNAMO magician" font-size="72" font-weight="normal" fill="#002B43">
                <tspan x="112" y="272">RHYME</tspan>
            </text>
        </g>
    </g>
</svg>