<?xml version="1.0" encoding="UTF-8" standalone="no"?>
<svg width="63px" height="60px" viewBox="0 0 63 60" version="1.1" xmlns="http://www.w3.org/2000/svg" xmlns:xlink="http://www.w3.org/1999/xlink" xmlns:sketch="http://www.bohemiancoding.com/sketch/ns">
    <!-- Generator: Sketch 3.3.3 (12072) - http://www.bohemiancoding.com/sketch -->
    <title>rhyme_x_design_logo_small</title>
    <desc>Created with Sketch.</desc>
    <defs></defs>
    <g id="Page-1" stroke="none" stroke-width="1" fill="none" fill-rule="evenodd" sketch:type="MSPage">
        <g id="rhyme_x_design_logo_small" sketch:type="MSArtboardGroup">
            <g id="rxd_logo" sketch:type="MSLayerGroup" transform="translate(-12.000000, -13.000000)">
                <path d="M46.5751372,64.9626493 C45.4172447,65.1484856 44.2295392,65.2450433 43.0192951,65.2450433 C41.8491214,65.2450433 40.7000184,65.1547737 39.5785619,64.9808142 L35.3673338,66.8358938 L33.0795994,62.9089277 C30.9091594,61.8244917 28.9404154,60.3959824 27.2447425,58.6948187 L22.8597145,57.7430373 L23.3033227,53.3433474 C22.1608759,51.1775149 21.3644315,48.8006511 20.9876028,46.286414 L18.0822291,43.0304865 L20.9603951,39.8050547 C21.323842,37.2314166 22.1265123,34.7990491 23.2900837,32.5863221 L22.8597145,28.3179357 L27.0488867,27.4086653 C28.8210557,25.5859292 30.9022118,24.0655161 33.2077335,22.9320991 L35.3673338,19.2250792 L39.3185658,20.9656285 C40.5221992,20.7642788 41.7585171,20.6594892 43.0192951,20.6594892 C44.3194981,20.6594892 45.5936874,20.7709349 46.8328427,20.9848004 L50.8276015,19.2250792 L53.0511921,23.0419403 C55.2510156,24.1538698 57.2415009,25.6200809 58.9477423,27.3656224 L63.3352208,28.3179357 L62.8793659,32.8390887 C63.941471,34.9232155 64.6855457,37.1967133 65.0475923,39.5955454 L68.1127063,43.0304865 L65.0181714,46.4983931 C64.6445259,48.8374034 63.9072587,51.0549754 62.8661943,53.0912484 L63.3352208,57.7430373 L58.7505325,58.7381555 C57.1227879,60.3622718 55.2453397,61.7359536 53.1808089,62.7965415 L50.8276015,66.8358938 L46.5751372,64.9626493 Z" id="Oval-1" stroke="#00CCFF" sketch:type="MSShapeGroup"></path>
                <path d="M46.5751372,64.9626493 C45.4172447,65.1484856 44.2295392,65.2450433 43.0192951,65.2450433 C41.8491214,65.2450433 40.7000184,65.1547737 39.5785619,64.9808142 L35.3673338,66.8358938 L33.0795994,62.9089277 C30.9091594,61.8244917 28.9404154,60.3959824 27.2447425,58.6948187 L22.8597145,57.7430373 L23.3033227,53.3433474 C22.1608759,51.1775149 21.3644315,48.8006511 20.9876028,46.286414 L18.0822291,43.0304865 L20.9603951,39.8050547 C21.323842,37.2314166 22.1265123,34.7990491 23.2900837,32.5863221 L22.8597145,28.3179357 L27.0488867,27.4086653 C28.8210557,25.5859292 30.9022118,24.0655161 33.2077335,22.9320991 L35.3673338,19.2250792 L39.3185658,20.9656285 C40.5221992,20.7642788 41.7585171,20.6594892 43.0192951,20.6594892 C44.3194981,20.6594892 45.5936874,20.7709349 46.8328427,20.9848004 L50.8276015,19.2250792 L53.0511921,23.0419403 C55.2510156,24.1538698 57.2415009,25.6200809 58.9477423,27.3656224 L63.3352208,28.3179357 L62.8793659,32.8390887 C63.941471,34.9232155 64.6855457,37.1967133 65.0475923,39.5955454 L68.1127063,43.0304865 L65.0181714,46.4983931 C64.6445259,48.8374034 63.9072587,51.0549754 62.8661943,53.0912484 L63.3352208,57.7430373 L58.7505325,58.7381555 C57.1227879,60.3622718 55.2453397,61.7359536 53.1808089,62.7965415 L50.8276015,66.8358938 L46.5751372,64.9626493 Z" id="Oval-1-Copy" stroke="#FFC500" sketch:type="MSShapeGroup" transform="translate(43.097468, 43.000000) rotate(5.000000) translate(-43.097468, -43.000000) "></path>
                <path d="M46.5751372,64.9626493 C45.4172447,65.1484856 44.2295392,65.2450433 43.0192951,65.2450433 C41.8491214,65.2450433 40.7000184,65.1547737 39.5785619,64.9808142 L35.3673338,66.8358938 L33.0795994,62.9089277 C30.9091594,61.8244917 28.9404154,60.3959824 27.2447425,58.6948187 L22.8597145,57.7430373 L23.3033227,53.3433474 C22.1608759,51.1775149 21.3644315,48.8006511 20.9876028,46.286414 L18.0822291,43.0304865 L20.9603951,39.8050547 C21.323842,37.2314166 22.1265123,34.7990491 23.2900837,32.5863221 L22.8597145,28.3179357 L27.0488867,27.4086653 C28.8210557,25.5859292 30.9022118,24.0655161 33.2077335,22.9320991 L35.3673338,19.2250792 L39.3185658,20.9656285 C40.5221992,20.7642788 41.7585171,20.6594892 43.0192951,20.6594892 C44.3194981,20.6594892 45.5936874,20.7709349 46.8328427,20.9848004 L50.8276015,19.2250792 L53.0511921,23.0419403 C55.2510156,24.1538698 57.2415009,25.6200809 58.9477423,27.3656224 L63.3352208,28.3179357 L62.8793659,32.8390887 C63.941471,34.9232155 64.6855457,37.1967133 65.0475923,39.5955454 L68.1127063,43.0304865 L65.0181714,46.4983931 C64.6445259,48.8374034 63.9072587,51.0549754 62.8661943,53.0912484 L63.3352208,57.7430373 L58.7505325,58.7381555 C57.1227879,60.3622718 55.2453397,61.7359536 53.1808089,62.7965415 L50.8276015,66.8358938 L46.5751372,64.9626493 Z" id="Oval-1-Copy-2" stroke="#99E000" sketch:type="MSShapeGroup" transform="translate(43.097468, 43.000000) rotate(10.000000) translate(-43.097468, -43.000000) "></path>
                <path d="M46.5751372,64.9626493 C45.4172447,65.1484856 44.2295392,65.2450433 43.0192951,65.2450433 C41.8491214,65.2450433 40.7000184,65.1547737 39.5785619,64.9808142 L35.3673338,66.8358938 L33.0795994,62.9089277 C30.9091594,61.8244917 28.9404154,60.3959824 27.2447425,58.6948187 L22.8597145,57.7430373 L23.3033227,53.3433474 C22.1608759,51.1775149 21.3644315,48.8006511 20.9876028,46.286414 L18.0822291,43.0304865 L20.9603951,39.8050547 C21.323842,37.2314166 22.1265123,34.7990491 23.2900837,32.5863221 L22.8597145,28.3179357 L27.0488867,27.4086653 C28.8210557,25.5859292 30.9022118,24.0655161 33.2077335,22.9320991 L35.3673338,19.2250792 L39.3185658,20.9656285 C40.5221992,20.7642788 41.7585171,20.6594892 43.0192951,20.6594892 C44.3194981,20.6594892 45.5936874,20.7709349 46.8328427,20.9848004 L50.8276015,19.2250792 L53.0511921,23.0419403 C55.2510156,24.1538698 57.2415009,25.6200809 58.9477423,27.3656224 L63.3352208,28.3179357 L62.8793659,32.8390887 C63.941471,34.9232155 64.6855457,37.1967133 65.0475923,39.5955454 L68.1127063,43.0304865 L65.0181714,46.4983931 C64.6445259,48.8374034 63.9072587,51.0549754 62.8661943,53.0912484 L63.3352208,57.7430373 L58.7505325,58.7381555 C57.1227879,60.3622718 55.2453397,61.7359536 53.1808089,62.7965415 L50.8276015,66.8358938 L46.5751372,64.9626493 Z" id="Oval-1-Copy-3" stroke="#FF1C5E" sketch:type="MSShapeGroup" transform="translate(43.097468, 43.000000) rotate(15.000000) translate(-43.097468, -43.000000) "></path>
                <path d="M46.4088995,65.851958 C45.2517124,66.0471199 44.0647303,66.148523 42.8552235,66.148523 C41.6857626,66.148523 40.5373597,66.0537236 39.4165864,65.8710345 L35.2079236,67.8192049 L32.9215828,63.6951776 C30.752465,62.5563228 28.7849203,61.0561287 27.0902804,59.2695979 L22.7079236,58.2700547 L23.1512615,53.6495814 C22.0095106,51.3750639 21.2135514,48.8789252 20.8369523,46.2385196 L17.9333485,42.8192049 L20.8097612,39.4319159 C21.1729868,36.7291286 21.975168,34.1747011 23.1380306,31.850936 L22.7079236,27.3683552 L26.8945439,26.4134562 C28.6656333,24.4992523 30.7455216,22.9025426 33.0496388,21.7122489 L35.2079236,17.8192049 L39.1567486,19.6470977 C40.3596488,19.4356439 41.5952136,19.3255959 42.8552235,19.3255959 C44.1546345,19.3255959 45.4280476,19.4426341 46.6664481,19.6672317 L50.6587733,17.8192049 L52.8810094,21.8276021 C55.0794928,22.99533 57.0687655,24.5351178 58.7739675,26.3682533 L63.1587733,27.3683552 L62.7031961,32.1163868 C63.7646543,34.3050984 64.5082757,36.692684 64.8701017,39.2118935 L67.9333485,42.8192049 L64.8406988,46.4611366 C64.4672808,48.917522 63.7304628,51.2463753 62.6900325,53.3848317 L63.1587733,58.2700547 L58.5768779,59.3151094 C56.9501249,61.0207264 55.0738204,62.4633417 53.0105472,63.5771516 L50.6587733,67.8192049 L46.4088995,65.851958 Z" id="Oval-1-Copy-4" stroke="#002B43" sketch:type="MSShapeGroup" transform="translate(42.933348, 42.819205) rotate(20.000000) translate(-42.933348, -42.819205) "></path>
                <path d="M46.5751372,64.9626493 C45.4172447,65.1484856 44.2295392,65.2450433 43.0192951,65.2450433 C41.8491214,65.2450433 40.7000184,65.1547737 39.5785619,64.9808142 L35.3673338,66.8358938 L33.0795994,62.9089277 C30.9091594,61.8244917 28.9404154,60.3959824 27.2447425,58.6948187 L22.8597145,57.7430373 L23.3033227,53.3433474 C22.1608759,51.1775149 21.3644315,48.8006511 20.9876028,46.286414 L18.0822291,43.0304865 L20.9603951,39.8050547 C21.323842,37.2314166 22.1265123,34.7990491 23.2900837,32.5863221 L22.8597145,28.3179357 L27.0488867,27.4086653 C28.8210557,25.5859292 30.9022118,24.0655161 33.2077335,22.9320991 L35.3673338,19.2250792 L39.3185658,20.9656285 C40.5221992,20.7642788 41.7585171,20.6594892 43.0192951,20.6594892 C44.3194981,20.6594892 45.5936874,20.7709349 46.8328427,20.9848004 L50.8276015,19.2250792 L53.0511921,23.0419403 C55.2510156,24.1538698 57.2415009,25.6200809 58.9477423,27.3656224 L63.3352208,28.3179357 L62.8793659,32.8390887 C63.941471,34.9232155 64.6855457,37.1967133 65.0475923,39.5955454 L68.1127063,43.0304865 L65.0181714,46.4983931 C64.6445259,48.8374034 63.9072587,51.0549754 62.8661943,53.0912484 L63.3352208,57.7430373 L58.7505325,58.7381555 C57.1227879,60.3622718 55.2453397,61.7359536 53.1808089,62.7965415 L50.8276015,66.8358938 L46.5751372,64.9626493 Z" id="Oval-1-Copy-5" stroke="#99E000" sketch:type="MSShapeGroup" transform="translate(43.097468, 43.000000) rotate(25.000000) translate(-43.097468, -43.000000) "></path>
                <path d="M46.5751372,64.9626493 C45.4172447,65.1484856 44.2295392,65.2450433 43.0192951,65.2450433 C41.8491214,65.2450433 40.7000184,65.1547737 39.5785619,64.9808142 L35.3673338,66.8358938 L33.0795994,62.9089277 C30.9091594,61.8244917 28.9404154,60.3959824 27.2447425,58.6948187 L22.8597145,57.7430373 L23.3033227,53.3433474 C22.1608759,51.1775149 21.3644315,48.8006511 20.9876028,46.286414 L18.0822291,43.0304865 L20.9603951,39.8050547 C21.323842,37.2314166 22.1265123,34.7990491 23.2900837,32.5863221 L22.8597145,28.3179357 L27.0488867,27.4086653 C28.8210557,25.5859292 30.9022118,24.0655161 33.2077335,22.9320991 L35.3673338,19.2250792 L39.3185658,20.9656285 C40.5221992,20.7642788 41.7585171,20.6594892 43.0192951,20.6594892 C44.3194981,20.6594892 45.5936874,20.7709349 46.8328427,20.9848004 L50.8276015,19.2250792 L53.0511921,23.0419403 C55.2510156,24.1538698 57.2415009,25.6200809 58.9477423,27.3656224 L63.3352208,28.3179357 L62.8793659,32.8390887 C63.941471,34.9232155 64.6855457,37.1967133 65.0475923,39.5955454 L68.1127063,43.0304865 L65.0181714,46.4983931 C64.6445259,48.8374034 63.9072587,51.0549754 62.8661943,53.0912484 L63.3352208,57.7430373 L58.7505325,58.7381555 C57.1227879,60.3622718 55.2453397,61.7359536 53.1808089,62.7965415 L50.8276015,66.8358938 L46.5751372,64.9626493 Z" id="Oval-1-Copy-7" stroke="#FFC500" sketch:type="MSShapeGroup" transform="translate(43.097468, 43.000000) rotate(30.000000) translate(-43.097468, -43.000000) "></path>
                <circle id="Oval-9" stroke="#FFFFFF" fill="#FFFFFF" sketch:type="MSShapeGroup" cx="43" cy="43" r="23"></circle>
                <path d="M43,43 L43,13 L43,43 L13.0769231,43 L43,43 Z M43,43 L43,73 L43,43 L72.9230769,43 L43,43 Z" id="Line-Copy" stroke="#9B9B9B" stroke-linecap="square" sketch:type="MSShapeGroup" transform="translate(43.000000, 43.000000) rotate(45.000000) translate(-43.000000, -43.000000) "></path>
                <text id="D" sketch:type="MSTextLayer" font-family="DYNAMO magician" font-size="11" font-weight="normal" fill="#002B43">
                    <tspan x="52" y="48">D</tspan>
                </text>
                <text id="R" sketch:type="MSTextLayer" font-family="DYNAMO magician" font-size="12" font-weight="normal" fill="#002B43">
                    <tspan x="23" y="48">R</tspan>
                </text>
            </g>
        </g>
    </g>
</svg>